<svg width="20" height="20" viewBox="0 0 20 20" fill="none" xmlns="http://www.w3.org/2000/svg">
<circle cx="10" cy="10" r="9.3" stroke="black" stroke-width="1.4"/>
<path d="M8.52 9.78C8.84621 9.71371 9.13813 9.53335 9.34339 9.27129C9.54864 9.00922 9.6538 8.68259 9.64 8.35C9.64 7.35 8.87 6.75 7.7 6.75H5V13.25H7.7C9 13.2 10 12.53 10 11.37C10.0094 11.1679 9.97832 10.966 9.90865 10.776C9.83897 10.5861 9.73208 10.412 9.59423 10.2639C9.45639 10.1158 9.29037 9.99672 9.10591 9.91363C8.92145 9.83054 8.72225 9.78511 8.52 9.78ZM6.26 7.67H7.41C8.01 7.67 8.36 7.99 8.36 8.52C8.36 9.05 7.98 9.41 7.11 9.41H6.26V7.67ZM7.26 12.24H6.26V10.3H7.49C8.24 10.3 8.66 10.68 8.66 11.3C8.66 11.92 8.24 12.24 7.22 12.24H7.26ZM12.75 8.3C12.4468 8.27474 12.1417 8.31537 11.8556 8.41908C11.5696 8.5228 11.3093 8.68715 11.0928 8.90088C10.8762 9.1146 10.7084 9.37263 10.6009 9.65729C10.4934 9.94194 10.4488 10.2465 10.47 10.55V11C10.4454 11.3122 10.4893 11.626 10.5986 11.9195C10.7079 12.213 10.88 12.479 11.1029 12.6991C11.3258 12.9191 11.594 13.0878 11.8889 13.1933C12.1838 13.2988 12.4981 13.3386 12.81 13.31C13.3036 13.3686 13.8014 13.2413 14.2063 12.9529C14.6111 12.6645 14.8941 12.2357 15 11.75H13.79C13.7274 11.958 13.5917 12.1364 13.4079 12.2522C13.2241 12.3679 13.0046 12.4133 12.79 12.38C12.6371 12.3838 12.4852 12.3548 12.3445 12.295C12.2037 12.2351 12.0775 12.1458 11.9742 12.0331C11.8709 11.9203 11.793 11.7867 11.7457 11.6413C11.6984 11.4958 11.6828 11.342 11.7 11.19V11.05H15V10.58C15.0236 10.2772 14.9818 9.97279 14.8774 9.68752C14.7731 9.40224 14.6087 9.14271 14.3953 8.9265C14.182 8.7103 13.9247 8.54247 13.6408 8.43438C13.3569 8.32629 13.0531 8.28046 12.75 8.3ZM13.75 10.3H11.73C11.7175 10.1613 11.734 10.0215 11.7786 9.88963C11.8233 9.75771 11.8949 9.63657 11.9891 9.53396C12.0832 9.43135 12.1977 9.34953 12.3253 9.29375C12.4529 9.23796 12.5907 9.20943 12.73 9.21C12.8693 9.20943 13.0071 9.23796 13.1347 9.29375C13.2623 9.34953 13.3768 9.43135 13.4709 9.53396C13.5651 9.63657 13.6367 9.75771 13.6814 9.88963C13.726 10.0215 13.7425 10.1613 13.73 10.3H13.75ZM11.25 7.2H14.25V7.7H11.25V7.2Z" fill="black"/>
</svg>
