<svg width="20" height="20" viewBox="0 0 20 20" fill="none" xmlns="http://www.w3.org/2000/svg">
<path d="M9.99988 0.476074C4.73988 0.476074 0.476074 4.73988 0.476074 9.99988C0.476074 15.2599 4.73988 19.5237 9.99988 19.5237C15.2599 19.5237 19.5237 15.2599 19.5237 9.99988C19.5237 4.73988 15.2599 0.476074 9.99988 0.476074ZM9.99988 1.85607C12.0746 1.85607 13.9685 2.63226 15.4066 3.90941C14.3499 5.30322 12.7446 6.23131 11.1361 6.85941C10.2255 5.201 9.20494 3.60537 8.08131 2.08322C8.70974 1.93174 9.35394 1.85549 10.0004 1.85607H9.99988ZM6.53512 2.6275C7.59703 4.21607 8.6256 5.68893 9.56512 7.35607C7.18893 7.97179 4.50369 8.34131 2.02322 8.3475C2.54607 5.81036 4.25036 3.70369 6.53512 2.62798V2.6275ZM16.3099 4.85131C17.4867 6.28939 18.134 8.0879 18.1437 9.94607C16.2599 9.57465 14.3865 9.4775 12.4789 9.66988C12.2646 9.13512 12.0046 8.62703 11.7556 8.07941C13.3999 7.41607 15.158 6.28084 16.3099 4.85084V4.85131ZM10.2266 8.61607C10.4304 9.04941 10.6665 9.50941 10.8885 9.97941C8.23607 11.1489 5.41465 12.7118 3.95036 15.4518C2.54465 13.8962 1.7955 11.857 1.85988 9.76131C4.70036 9.74798 7.48846 9.39274 10.2266 8.61607ZM14.5304 10.8366C15.7155 10.8368 16.8957 10.9888 18.0423 11.2889C17.8655 12.3919 17.4637 13.4467 16.8618 14.3877C16.2599 15.3288 15.4709 16.1359 14.5437 16.7589C14.1066 14.7708 13.6899 12.8685 12.9532 10.9504C13.4753 10.8743 14.0023 10.8361 14.5299 10.8361L14.5304 10.8366ZM18.0846 10.9842C18.0789 11.0308 18.0737 11.0766 18.067 11.1223C18.0737 11.0761 18.0794 11.0304 18.0846 10.9842ZM11.4466 11.3223C12.197 13.2618 12.7861 15.4094 13.1813 17.4994C12.1752 17.9263 11.0933 18.1456 10.0004 18.1442C8.18981 18.1468 6.43049 17.5433 5.00274 16.4299C6.4775 14.0375 8.76179 12.227 11.4461 11.3227L11.4466 11.3223Z" fill="black"/>
</svg>
