<svg width="20" height="20" viewBox="0 0 20 20" fill="none" xmlns="http://www.w3.org/2000/svg">
<path d="M10 0C7.34784 0 4.8043 1.05357 2.92893 2.92893C1.05357 4.8043 0 7.34784 0 10C0 12.6522 1.05357 15.1957 2.92893 17.0711C4.8043 18.9464 7.34784 20 10 20C12.6522 20 15.1957 18.9464 17.0711 17.0711C18.9464 15.1957 20 12.6522 20 10C20 7.34784 18.9464 4.8043 17.0711 2.92893C15.1957 1.05357 12.6522 0 10 0ZM12.6364 18.1527H12.5582C12.5 18.1559 12.4417 18.1471 12.387 18.1269C12.3323 18.1068 12.2823 18.0756 12.24 18.0355C12.2009 17.9943 12.1705 17.9457 12.1503 17.8927C12.1302 17.8396 12.1208 17.7831 12.1227 17.7264V16.5536C12.1282 16.1645 12.1318 15.7718 12.1318 15.3745C12.1303 15.0843 12.0878 14.7956 12.0055 14.5173C11.9279 14.2362 11.7714 13.9831 11.5545 13.7882C12.1353 13.7321 12.7063 13.6 13.2527 13.3955C13.7137 13.2203 14.1308 12.9463 14.4745 12.5927C14.8136 12.2364 15.0655 11.8073 15.2109 11.3373C15.3891 10.7627 15.4736 10.1645 15.4618 9.56273C15.4645 9.14287 15.3906 8.72605 15.2436 8.33273C15.0952 7.93637 14.8707 7.57288 14.5827 7.26273C14.6445 7.10636 14.69 6.94364 14.7173 6.77727C14.7806 6.39633 14.7695 6.00671 14.6845 5.63C14.639 5.41357 14.5773 5.20085 14.5 4.99364C14.4704 4.98223 14.4389 4.97667 14.4073 4.97727H14.3164C14.1255 4.97909 13.9355 5.01091 13.7545 5.07C13.5545 5.12818 13.3582 5.20091 13.1682 5.28727C12.9793 5.37184 12.7953 5.46715 12.6173 5.57273C12.4551 5.66836 12.2959 5.76902 12.14 5.87455C10.7382 5.4839 9.25632 5.4839 7.85455 5.87455C7.69801 5.76996 7.53887 5.66932 7.37727 5.57273C7.19675 5.46597 7.00972 5.37063 6.81727 5.28727C6.62789 5.19866 6.43145 5.12599 6.23 5.07C6.05188 5.01108 5.86578 4.97981 5.67818 4.97727H5.58727C5.55614 4.97712 5.52527 4.98299 5.49636 4.99455C5.41743 5.20171 5.35273 5.41402 5.30273 5.63C5.22387 6.00764 5.21555 6.39661 5.27818 6.77727C5.30545 6.94364 5.35 7.10636 5.41182 7.26273C5.12409 7.5729 4.89987 7.9364 4.75182 8.33273C4.60489 8.72605 4.53095 9.14287 4.53364 9.56273C4.52161 10.1602 4.6032 10.7559 4.77545 11.3282C4.92727 11.7982 5.17818 12.23 5.51273 12.5927C5.85818 12.9436 6.27455 13.2173 6.73455 13.3955C7.27818 13.6045 7.84818 13.7382 8.42818 13.7927C8.26636 13.9391 8.13727 14.12 8.05182 14.32C7.97 14.5191 7.91273 14.7273 7.88455 14.94C7.57885 15.0866 7.24447 15.1636 6.90545 15.1655C6.59061 15.1777 6.27997 15.0899 6.01818 14.9145C5.76667 14.7285 5.55365 14.4954 5.39091 14.2282C5.31814 14.1162 5.237 14.0098 5.14818 13.91C5.05436 13.8053 4.95087 13.7098 4.83909 13.6245C4.72835 13.5419 4.60695 13.4747 4.47818 13.4245C4.35181 13.369 4.21531 13.3402 4.07727 13.34C4.04379 13.3411 4.0104 13.3441 3.97727 13.3491C3.93182 13.3491 3.88636 13.3545 3.84273 13.3655C3.8037 13.3756 3.76677 13.3925 3.73364 13.4155C3.71898 13.4238 3.70676 13.4358 3.69815 13.4503C3.68954 13.4648 3.68485 13.4813 3.68455 13.4982C3.68819 13.5383 3.70057 13.5772 3.72083 13.6121C3.74109 13.6469 3.76873 13.677 3.80182 13.7C3.87818 13.7618 3.94273 13.8091 3.99455 13.8427L4.01818 13.86C4.13 13.9455 4.23636 14.0382 4.33636 14.1373C4.43091 14.2191 4.51545 14.3118 4.58727 14.4127C4.66273 14.5109 4.72727 14.6182 4.78 14.73C4.84091 14.8418 4.90545 14.97 4.97273 15.1155C5.12909 15.51 5.40727 15.8445 5.76727 16.07C6.14455 16.2727 6.56909 16.3736 6.99727 16.3627C7.14273 16.3627 7.28818 16.3536 7.43364 16.3373C7.57545 16.3145 7.71818 16.29 7.86091 16.2618V17.7145C7.86332 17.773 7.85342 17.8313 7.83184 17.8857C7.81027 17.94 7.7775 17.9893 7.73567 18.0302C7.69383 18.0711 7.64387 18.1027 7.58902 18.123C7.53417 18.1434 7.47565 18.1519 7.41727 18.1482H7.36546C5.42236 17.5204 3.76725 16.2195 2.69814 14.4798C1.62904 12.74 1.2162 10.6757 1.53396 8.65862C1.85172 6.64151 2.8792 4.80412 4.43139 3.47731C5.98357 2.15051 7.95847 1.42146 10.0005 1.42146C12.0424 1.42146 14.0173 2.15051 15.5695 3.47731C17.1217 4.80412 18.1492 6.64151 18.467 8.65862C18.7847 10.6757 18.3719 12.74 17.3028 14.4798C16.2337 16.2195 14.5785 17.5204 12.6355 18.1482V18.1527H12.6364Z" fill="#080A0D"/>
</svg>
