<svg width="20" height="20" viewBox="0 0 20 20" fill="none" xmlns="http://www.w3.org/2000/svg">
    <circle cx="10" cy="10" r="9.3" stroke="black" stroke-width="1.4"/>
    <path d="M6.96149 6.92298C7.49251 6.92298 7.92298 6.49251 7.92298 5.96149C7.92298 5.43047 7.49251 5 6.96149 5C6.43047 5 6 5.43047 6 5.96149C6 6.49251 6.43047 6.92298 6.96149 6.92298Z" fill="black"/>
    <path d="M8.83087 7.65161V12.986H10.4871V10.348C10.4871 9.65193 10.6181 8.97783 11.4811 8.97783C12.3323 8.97783 12.3429 9.77366 12.3429 10.3919V12.9864H14V10.061C14 8.62408 13.6906 7.51978 12.0111 7.51978C11.2047 7.51978 10.6642 7.96229 10.4432 8.38107H10.4208V7.65161H8.83087ZM6.13184 7.65161H7.79072V12.986H6.13184V7.65161Z" fill="black"/>
</svg>
